<?xml version="1.0" encoding="UTF-8"?>
<svg xmlns="http://www.w3.org/2000/svg" width="1024" height="1024" viewBox="0 0 1024 1024">
  <rect width="1024" height="1024" fill="#101317"/>

  <path d="M0 0h334L164 170H0Z" fill="#18d1ff"/>
  <path d="M1024 110v180L844 110Z" fill="#24272c"/>

  <path
    d="M166 790 428 244h168L858 790H680l-58-134H402l-58 134Zm292-270-40 92h188l-94-218Z"
    fill="#f7f7f7"
    fill-rule="evenodd"
  />
  <path d="M387 590h250l28 66H359Z" fill="#18d1ff"/>

  <path d="M500 122h24v158h-24Z" fill="#f7f7f7"/>
  <path d="m512 90 28 48h-56Z" fill="#18d1ff"/>
  <path d="M456 170h24v106h-24ZM544 170h24v106h-24Z" fill="#c6c9ce"/>
  <path d="M430 212h164" fill="none" stroke="#f7f7f7" stroke-width="12"/>

  <path d="M82 842h860" fill="none" stroke="#35373c" stroke-width="8"/>
  <path d="M82 874h568" fill="none" stroke="#18d1ff" stroke-width="8"/>
  <path d="M680 874h262" fill="none" stroke="#585858" stroke-width="8"/>
</svg>
